<svg version="1.1" viewBox="0.0 0.0 512.0 512.0" fill="none" stroke="none" stroke-linecap="square" stroke-miterlimit="10" xmlns:xlink="http://www.w3.org/1999/xlink" xmlns="http://www.w3.org/2000/svg"><clipPath id="p.0"><path d="m0 0l512.0 0l0 512.0l-512.0 0l0 -512.0z" clip-rule="nonzero"/></clipPath><g clip-path="url(#p.0)"><path fill="#000000" fill-opacity="0.0" d="m0 0l512.0 0l0 512.0l-512.0 0z" fill-rule="evenodd"/><path fill="#171717" d="m210.76068 14.815826l0 0c0 -8.175297 6.6273956 -14.802686 14.802689 -14.802686l60.882828 0l0 0c3.9259033 0 7.6910095 1.5595642 10.467072 4.3356066c2.7760315 2.776042 4.335602 6.5411634 4.335602 10.467079l0 2.646597l0 0c0 8.175297 -6.6273804 14.802687 -14.802673 14.802687l-60.882828 0c-8.175293 0 -14.802689 -6.62739 -14.802689 -14.802687z" fill-rule="evenodd"/><path stroke="#171717" stroke-width="1.0" stroke-linejoin="round" stroke-linecap="butt" d="m210.76068 14.815826l0 0c0 -8.175297 6.6273956 -14.802686 14.802689 -14.802686l60.882828 0l0 0c3.9259033 0 7.6910095 1.5595642 10.467072 4.3356066c2.7760315 2.776042 4.335602 6.5411634 4.335602 10.467079l0 2.646597l0 0c0 8.175297 -6.6273804 14.802687 -14.802673 14.802687l-60.882828 0c-8.175293 0 -14.802689 -6.62739 -14.802689 -14.802687z" fill-rule="evenodd"/><path fill="#171717" d="m267.77628 16.218502l0 33.19685l-23.527573 0l0 -33.19685z" fill-rule="evenodd"/><path stroke="#171717" stroke-width="1.0" stroke-linejoin="round" stroke-linecap="butt" d="m267.77628 16.218502l0 33.19685l-23.527573 0l0 -33.19685z" fill-rule="evenodd"/><path fill="#171717" d="m347.00555 46.73183l0 0c3.5367737 -6.6025124 11.756592 -9.088341 18.359467 -5.5522537l14.199097 7.604145l0 0c3.170807 1.6980896 5.5370483 4.5861588 6.578186 8.02887c1.0411682 3.4427109 0.6719055 7.1580505 -1.0265198 10.32869l-1.1449585 2.137436l0 0c-3.5367737 6.6025085 -11.756592 9.088333 -18.359467 5.552246l-14.199097 -7.604141c-6.6028748 -3.536087 -9.08844 -11.755043 -5.5516663 -18.357555z" fill-rule="evenodd"/><path stroke="#171717" stroke-width="1.0" stroke-linejoin="round" stroke-linecap="butt" d="m347.00555 46.73183l0 0c3.5367737 -6.6025124 11.756592 -9.088341 18.359467 -5.5522537l14.199097 7.604145l0 0c3.170807 1.6980896 5.5370483 4.5861588 6.578186 8.02887c1.0411682 3.4427109 0.6719055 7.1580505 -1.0265198 10.32869l-1.1449585 2.137436l0 0c-3.5367737 6.6025085 -11.756592 9.088333 -18.359467 5.552246l-14.199097 -7.604141c-6.6028748 -3.536087 -9.08844 -11.755043 -5.5516663 -18.357555z" fill-rule="evenodd"/><path fill="#59d07d" d="m34.829395 282.1286l0 0c0 -122.6333 99.21652 -222.04724 221.60631 -222.04724l0 0c58.77365 0 115.140076 23.3942 156.69931 65.03613c41.559235 41.64193 64.90698 98.12052 64.90698 157.01111l0 0c0 122.6333 -99.21652 222.04724 -221.6063 222.04724l0 0c-122.389786 0 -221.60631 -99.41394 -221.60631 -222.04724z" fill-rule="evenodd"/><path fill="#000000" fill-opacity="0.0" d="m41.68497 281.39856l0 0c0 -118.3716 95.95912 -214.33072 214.33072 -214.33072l0 0c56.844025 0 111.35989 22.5812 151.55469 62.776c40.194794 40.19481 62.776 94.71066 62.776 151.55472l0 0c0 118.37158 -95.95911 214.33069 -214.33069 214.33069l0 0c-118.3716 0 -214.33072 -95.95911 -214.33072 -214.33069z" fill-rule="evenodd"/><path stroke="#171717" stroke-width="24.0" stroke-linejoin="round" stroke-linecap="butt" d="m41.68497 281.39856l0 0c0 -118.3716 95.95912 -214.33072 214.33072 -214.33072l0 0c56.844025 0 111.35989 22.5812 151.55469 62.776c40.194794 40.19481 62.776 94.71066 62.776 151.55472l0 0c0 118.37158 -95.95911 214.33069 -214.33069 214.33069l0 0c-118.3716 0 -214.33072 -95.95911 -214.33072 -214.33069z" fill-rule="evenodd"/><path fill="#171717" d="m41.68497 280.41373l0 0c0 -5.9638367 4.8346252 -10.798462 10.798443 -10.798462l9.962166 0l0 0c2.8639297 0 5.61055 1.1376953 7.6356506 3.1628113c2.0251007 2.0250854 3.162796 4.7717285 3.162796 7.6356506l0 1.9306641l0 0c0 5.963806 -4.834633 10.798431 -10.798447 10.798431l-9.962166 0c-5.9638176 0 -10.798443 -4.8346252 -10.798443 -10.798431z" fill-rule="evenodd"/><path stroke="#171717" stroke-width="1.0" stroke-linejoin="round" stroke-linecap="butt" d="m41.68497 280.41373l0 0c0 -5.9638367 4.8346252 -10.798462 10.798443 -10.798462l9.962166 0l0 0c2.8639297 0 5.61055 1.1376953 7.6356506 3.1628113c2.0251007 2.0250854 3.162796 4.7717285 3.162796 7.6356506l0 1.9306641l0 0c0 5.963806 -4.834633 10.798431 -10.798447 10.798431l-9.962166 0c-5.9638176 0 -10.798443 -4.8346252 -10.798443 -10.798431z" fill-rule="evenodd"/><path fill="#171717" d="m438.78687 280.41373l0 0c0 -5.9638367 4.8346252 -10.798462 10.798431 -10.798462l9.962158 0l0 0c2.8639526 0 5.610565 1.1376953 7.6356506 3.1628113c2.025116 2.0250854 3.1628113 4.7717285 3.1628113 7.6356506l0 1.9306641l0 0c0 5.963806 -4.8346252 10.798431 -10.798462 10.798431l-9.962158 0c-5.963806 0 -10.798431 -4.8346252 -10.798431 -10.798431z" fill-rule="evenodd"/><path stroke="#171717" stroke-width="1.0" stroke-linejoin="round" stroke-linecap="butt" d="m438.78687 280.41373l0 0c0 -5.9638367 4.8346252 -10.798462 10.798431 -10.798462l9.962158 0l0 0c2.8639526 0 5.610565 1.1376953 7.6356506 3.1628113c2.025116 2.0250854 3.1628113 4.7717285 3.1628113 7.6356506l0 1.9306641l0 0c0 5.963806 -4.8346252 10.798431 -10.798462 10.798431l-9.962158 0c-5.963806 0 -10.798431 -4.8346252 -10.798431 -10.798431z" fill-rule="evenodd"/><path fill="#171717" d="m256.9778 463.4618l0 0c5.9638367 0 10.798462 4.8346252 10.798462 10.798431l0 10.65509l0 0c0 2.863922 -1.1376953 5.610565 -3.1628113 7.6356506c-2.0250854 2.025116 -4.7717285 3.1627808 -7.6356506 3.1627808l-1.9306641 0l0 0c-5.9638214 0 -10.798447 -4.8346252 -10.798447 -10.798431l0 -10.65509c0 -5.963806 4.8346252 -10.798431 10.798447 -10.798431z" fill-rule="evenodd"/><path stroke="#171717" stroke-width="1.0" stroke-linejoin="round" stroke-linecap="butt" d="m256.9778 463.4618l0 0c5.9638367 0 10.798462 4.8346252 10.798462 10.798431l0 10.65509l0 0c0 2.863922 -1.1376953 5.610565 -3.1628113 7.6356506c-2.0250854 2.025116 -4.7717285 3.1627808 -7.6356506 3.1627808l-1.9306641 0l0 0c-5.9638214 0 -10.798447 -4.8346252 -10.798447 -10.798431l0 -10.65509c0 -5.963806 4.8346252 -10.798431 10.798447 -10.798431z" fill-rule="evenodd"/><path fill="#171717" d="m256.9778 67.06784l0 0c5.9638367 0 10.798462 4.8346252 10.798462 10.798439l0 10.655083l0 0c0 2.863922 -1.1376953 5.61055 -3.1628113 7.6356506c-2.0250854 2.0251007 -4.7717285 3.162796 -7.6356506 3.162796l-1.9306641 0l0 0c-5.9638214 0 -10.798447 -4.834633 -10.798447 -10.798447l0 -10.655083c0 -5.963814 4.8346252 -10.798439 10.798447 -10.798439z" fill-rule="evenodd"/><path stroke="#171717" stroke-width="1.0" stroke-linejoin="round" stroke-linecap="butt" d="m256.9778 67.06784l0 0c5.9638367 0 10.798462 4.8346252 10.798462 10.798439l0 10.655083l0 0c0 2.863922 -1.1376953 5.61055 -3.1628113 7.6356506c-2.0250854 2.0251007 -4.7717285 3.162796 -7.6356506 3.162796l-1.9306641 0l0 0c-5.9638214 0 -10.798447 -4.834633 -10.798447 -10.798447l0 -10.655083c0 -5.963814 4.8346252 -10.798439 10.798447 -10.798439z" fill-rule="evenodd"/><path fill="#171717" d="m114.74316 281.3839l0 0c0 -78.015656 63.24418 -141.25984 141.25983 -141.25984l0 0c37.464447 0 73.39444 14.88269 99.8858 41.37404c26.491364 26.491364 41.374054 62.421356 41.374054 99.8858l0 0c0 78.015656 -63.2442 141.25983 -141.25986 141.25983l0 0c-78.015656 0 -141.25983 -63.24417 -141.25983 -141.25983z" fill-rule="evenodd"/><path fill="#f3f3f3" d="m214.88565 215.03027l119.1496 63.874023l-119.1496 63.873993z" fill-rule="evenodd"/><path stroke="#000000" stroke-width="1.0" stroke-linejoin="round" stroke-linecap="butt" d="m214.88565 215.03027l119.1496 63.874023l-119.1496 63.873993z" fill-rule="evenodd"/></g></svg>